<svg width="352" height="69" viewBox="0 0 352 69" fill="none" xmlns="http://www.w3.org/2000/svg">
    <path d="M351 34.6609C351 36.6313 349.971 38.6781 347.738 40.7859C345.505 42.8937 342.157 44.9744 337.754 46.9856C328.953 51.0053 316.155 54.6504 300.261 57.7207C268.491 63.8581 224.557 67.6609 176 67.6609C127.443 67.6609 83.5092 63.8581 51.7389 57.7207C35.8455 54.6504 23.0473 51.0053 14.2464 46.9856C9.84292 44.9744 6.49482 42.8937 4.26217 40.7859C2.02944 38.6781 1 36.6313 1 34.6609C1 32.6905 2.02944 30.6437 4.26217 28.5359C6.49482 26.4281 9.84292 24.3474 14.2464 22.3362C23.0473 18.3165 35.8455 14.6714 51.7389 11.6011C83.5092 5.46366 127.443 1.66089 176 1.66089C224.557 1.66089 268.491 5.46366 300.261 11.6011C316.155 14.6714 328.953 18.3165 337.754 22.3362C342.157 24.3474 345.505 26.4281 347.738 28.5359C349.971 30.6437 351 32.6905 351 34.6609Z" stroke="url(#paint0_linear_43_6923)" stroke-width="2"/>
    <defs>
        <linearGradient id="paint0_linear_43_6923" x1="176" y1="27.8609" x2="176" y2="68.6609" gradientUnits="userSpaceOnUse">
            <stop stop-opacity="0"/>
            <stop offset="1" stop-color="#2363F6"/>
        </linearGradient>
    </defs>
</svg>
